<svg width="97" height="126" viewBox="0 0 97 126" fill="none" xmlns="http://www.w3.org/2000/svg">
<line x1="27" y1="122.5" x2="77" y2="122.5" stroke="black"/>
<line x1="11.9938" y1="89.5" x2="91.9937" y2="88.5" stroke="black"/>
<path d="M45.7085 88.9514C45.7085 79.5913 37.72 74.8664 33.9268 67.2799C30.3898 60.206 32.1147 52.3545 38.3556 47.5004C45.2827 42.1127 52.9808 35.5219 54.9532 26.6459C55.5728 23.8579 56.9018 18.5436 55.3832 15.8102C53.6226 12.641 51.1406 10.0339 49.5784 6.90942" stroke="#48BB78" stroke-width="3" stroke-linecap="round"/>
<path d="M37.1946 72.6979C37.1946 67.76 37.6928 63.4102 43.7734 63.4102C46.0012 63.4102 46.4141 66.9809 45.2784 68.441C43.9958 70.0901 39.9576 70.487 37.9686 71.15" stroke="#48BB78" stroke-width="3" stroke-linecap="round"/>
<path d="M65.0578 86.6294C64.9258 85.5733 61.9084 82.5279 61.1879 81.3836C59.8745 79.2975 59.5933 76.95 59.038 74.5897C58.0683 70.4687 60.9544 67.0834 63.6819 64.356C70.0333 58.0045 81.3114 52.5205 81.3114 42.5125C81.3114 38.3606 79.1461 36.4865 75.2916 34.9447C73.6205 34.2763 66.8552 32.1242 66.6058 30.1288C66.1747 26.6806 65.7616 25.1953 67.5518 21.615C69.0679 18.5827 71.0047 16.5646 72.7976 13.8752" stroke="#48BB78" stroke-width="3" stroke-linecap="round"/>
<path d="M33.3246 87.4034C25.5242 87.4034 19.4825 75.4349 18.662 68.8708C18.1376 64.676 20.8997 63.4019 21.6719 59.9271C22.3458 56.8943 22.313 54.1921 22.4889 51.0263C22.6413 48.2833 24.8108 46.1519 24.8108 43.2865C24.8108 37.4524 22.3627 36.1944 18.275 32.1068C15.6663 29.4981 14.5433 28.2104 12.8141 25.0979C12.0317 23.6896 11.8586 18.4164 13.2011 17.7451" stroke="#48BB78" stroke-width="3" stroke-linecap="round"/>
<path d="M44.1603 65.7321C43.4772 65.7321 36.7252 68.2506 38.1405 66.6781C39.9768 64.6377 45.0132 65.3092 42.4404 67.8821C40.1099 70.2126 36.379 65.9622 40.2904 65.7321C43.3586 65.5517 41.6372 69.6021 38.7425 69.6021" stroke="#48BB78" stroke-width="3" stroke-linecap="round"/>
<path d="M77 36.2878C77 31.3499 77.4982 27 83.5788 27C85.8066 27 86.2195 30.5707 85.0838 32.0309C83.8012 33.6799 79.763 34.0768 77.774 34.7398" stroke="#48BB78" stroke-width="3" stroke-linecap="round"/>
<path d="M83.9657 29.322C83.2826 29.322 76.5306 31.8405 77.9459 30.268C79.7822 28.2276 84.8187 28.8991 82.2458 31.4719C79.9153 33.8024 76.1844 29.5521 80.0958 29.322C83.164 29.1415 81.4427 33.1919 78.5479 33.1919" stroke="#48BB78" stroke-width="3" stroke-linecap="round"/>
<path d="M53 11.2878C53 6.34988 53.4982 2 59.5788 2C61.8066 2 62.2195 5.57071 61.0838 7.03087C59.8012 8.67994 55.763 9.0768 53.774 9.73981" stroke="#48BB78" stroke-width="3" stroke-linecap="round"/>
<path d="M59.9657 4.32199C59.2826 4.32199 52.5306 6.84048 53.9459 5.26797C55.7822 3.22759 60.8187 3.89908 58.2458 6.47194C55.9153 8.80239 52.1844 4.55208 56.0958 4.32199C59.164 4.14151 57.4427 8.1919 54.5479 8.1919" stroke="#48BB78" stroke-width="3" stroke-linecap="round"/>
<path d="M19 29.2878C19 24.3499 19.4982 20 25.5788 20C27.8066 20 28.2195 23.5707 27.0838 25.0309C25.8012 26.6799 21.763 27.0768 19.774 27.7398" stroke="#48BB78" stroke-width="3" stroke-linecap="round"/>
<path d="M25.9657 22.322C25.2826 22.322 18.5306 24.8405 19.9459 23.268C21.7822 21.2276 26.8187 21.8991 24.2458 24.4719C21.9153 26.8024 18.1844 22.5521 22.0958 22.322C25.164 22.1415 23.4427 26.1919 20.5479 26.1919" stroke="#48BB78" stroke-width="3" stroke-linecap="round"/>
<path d="M23 72.2878C23 67.3499 23.4982 63 29.5788 63C31.8066 63 32.2195 66.5707 31.0838 68.0309C29.8012 69.6799 25.763 70.0768 23.774 70.7398" stroke="#48BB78" stroke-width="3" stroke-linecap="round"/>
<path d="M29.9657 65.322C29.2826 65.322 22.5306 67.8405 23.9459 66.268C25.7822 64.2276 30.8187 64.8991 28.2458 67.4719C25.9153 69.8024 22.1844 65.5521 26.0958 65.322C29.164 65.1415 27.4427 69.1919 24.5479 69.1919" stroke="#48BB78" stroke-width="3" stroke-linecap="round"/>
<path d="M82 48.2878C82 43.3499 82.4982 39 88.5788 39C90.8066 39 91.2195 42.5707 90.0838 44.0309C88.8012 45.6799 84.763 46.0768 82.774 46.7398" stroke="#48BB78" stroke-width="3" stroke-linecap="round"/>
<path d="M88.9657 41.322C88.2826 41.322 81.5306 43.8405 82.9459 42.268C84.7822 40.2276 89.8187 40.8991 87.2458 43.4719C84.9153 45.8024 81.1844 41.5521 85.0958 41.322C88.164 41.1415 86.4427 45.1919 83.5479 45.1919" stroke="#48BB78" stroke-width="3" stroke-linecap="round"/>
<path d="M24 39.2878C24 34.3499 24.4982 30 30.5788 30C32.8066 30 33.2195 33.5707 32.0838 35.0309C30.8012 36.6799 26.763 37.0768 24.774 37.7398" stroke="#48BB78" stroke-width="3" stroke-linecap="round"/>
<path d="M30.9657 32.322C30.2826 32.322 23.5306 34.8405 24.9459 33.268C26.7822 31.2276 31.8187 31.8991 29.2458 34.4719C26.9153 36.8024 23.1844 32.5521 27.0958 32.322C30.164 32.1415 28.4427 36.1919 25.5479 36.1919" stroke="#48BB78" stroke-width="3" stroke-linecap="round"/>
<path d="M49.7754 35.2584C45.1099 33.641 41.1632 31.7455 43.1548 26.0004C43.8845 23.8955 47.3934 24.6749 48.4011 26.2262C49.5391 27.9782 48.5914 31.9236 48.5664 34.0201" stroke="#48BB78" stroke-width="3" stroke-linecap="round"/>
<path d="M45.4755 26.3953C45.2518 27.0408 45.4198 34.2452 44.3976 32.393C43.0712 29.9896 45.3553 25.451 46.9435 28.7246C48.3821 31.6898 43.1443 33.8228 44.208 30.0518C45.0424 27.0938 48.3056 30.0468 47.3574 32.7819" stroke="#48BB78" stroke-width="3" stroke-linecap="round"/>
<path d="M74.7754 47.2584C70.1099 45.641 66.1632 43.7455 68.1548 38.0004C68.8845 35.8955 72.3934 36.6749 73.4011 38.2262C74.5391 39.9782 73.5914 43.9236 73.5664 46.0201" stroke="#48BB78" stroke-width="3" stroke-linecap="round"/>
<path d="M70.4755 38.3953C70.2518 39.0408 70.4198 46.2452 69.3976 44.393C68.0712 41.9896 70.3553 37.451 71.9435 40.7246C73.3821 43.6898 68.1443 45.8228 69.208 42.0518C70.0424 39.0938 73.3056 42.0468 72.3574 44.7819" stroke="#48BB78" stroke-width="3" stroke-linecap="round"/>
<path d="M16.7754 69.2584C12.1099 67.641 8.16319 65.7455 10.1548 60.0004C10.8845 57.8955 14.3934 58.6749 15.4011 60.2262C16.5391 61.9782 15.5914 65.9236 15.5664 68.0201" stroke="#48BB78" stroke-width="3" stroke-linecap="round"/>
<path d="M12.4755 60.3953C12.2518 61.0408 12.4198 68.2452 11.3976 66.393C10.0712 63.9896 12.3553 59.451 13.9435 62.7246C15.3821 65.6898 10.1443 67.8228 11.208 64.0518C12.0424 61.0938 15.3056 64.0468 14.3574 66.7819" stroke="#48BB78" stroke-width="3" stroke-linecap="round"/>
<path d="M67.7754 55.2584C63.1099 53.641 59.1632 51.7455 61.1548 46.0004C61.8845 43.8955 65.3934 44.6749 66.4011 46.2262C67.5391 47.9782 66.5914 51.9236 66.5664 54.0201" stroke="#48BB78" stroke-width="3" stroke-linecap="round"/>
<path d="M63.4755 46.3953C63.2518 47.0408 63.4198 54.2452 62.3976 52.393C61.0712 49.9896 63.3553 45.451 64.9435 48.7246C66.3821 51.6898 61.1443 53.8228 62.208 50.0518C63.0424 47.0938 66.3056 50.0468 65.3574 52.7819" stroke="#48BB78" stroke-width="3" stroke-linecap="round"/>
<path d="M66.7754 22.2584C62.1099 20.641 58.1632 18.7455 60.1548 13.0004C60.8845 10.8955 64.3934 11.6749 65.4011 13.2262C66.5391 14.9782 65.5914 18.9236 65.5664 21.0201" stroke="#48BB78" stroke-width="3" stroke-linecap="round"/>
<path d="M62.4755 13.3953C62.2518 14.0408 62.4198 21.2452 61.3976 19.393C60.0712 16.9896 62.3553 12.451 63.9435 15.7246C65.3821 18.6898 60.1443 20.8228 61.208 17.0518C62.0424 14.0938 65.3056 17.0468 64.3574 19.7819" stroke="#48BB78" stroke-width="3" stroke-linecap="round"/>
<path d="M40.7754 42.2584C36.1099 40.641 32.1632 38.7455 34.1548 33.0004C34.8845 30.8955 38.3934 31.6749 39.4011 33.2262C40.5391 34.9782 39.5914 38.9236 39.5664 41.0201" stroke="#48BB78" stroke-width="3" stroke-linecap="round"/>
<path d="M36.4755 33.3953C36.2518 34.0408 36.4198 41.2452 35.3976 39.393C34.0712 36.9896 36.3553 32.451 37.9435 35.7246C39.3821 38.6898 34.1443 40.8228 35.208 37.0518C36.0424 34.0938 39.3056 37.0468 38.3574 39.7819" stroke="#48BB78" stroke-width="3" stroke-linecap="round"/>
<path d="M57.7754 66.2584C53.1099 64.641 49.1632 62.7455 51.1548 57.0004C51.8845 54.8955 55.3934 55.6749 56.4011 57.2262C57.5391 58.9782 56.5914 62.9236 56.5664 65.0201" stroke="#48BB78" stroke-width="3" stroke-linecap="round"/>
<path d="M53.4755 57.3953C53.2518 58.0408 53.4198 65.2452 52.3976 63.393C51.0712 60.9896 53.3553 56.451 54.9435 59.7246C56.3821 62.6898 51.1443 64.8228 52.208 61.0518C53.0424 58.0938 56.3056 61.0468 55.3574 63.7819" stroke="#48BB78" stroke-width="3" stroke-linecap="round"/>
<path d="M8.77545 24.2584C4.10994 22.641 0.163194 20.7455 2.1548 15.0004C2.88447 12.8955 6.39344 13.6749 7.40109 15.2262C8.53909 16.9782 7.59142 20.9236 7.56638 23.0201" stroke="#48BB78" stroke-width="3" stroke-linecap="round"/>
<path d="M4.47553 15.3953C4.25179 16.0408 4.41984 23.2452 3.39762 21.393C2.07125 18.9896 4.3553 14.451 5.94354 17.7246C7.38214 20.6898 2.14426 22.8228 3.208 19.0518C4.0424 16.0938 7.30556 19.0468 6.35743 21.7819" stroke="#48BB78" stroke-width="3" stroke-linecap="round"/>
<path d="M19.7754 53.2584C15.1099 51.641 11.1632 49.7455 13.1548 44.0004C13.8845 41.8955 17.3934 42.6749 18.4011 44.2262C19.5391 45.9782 18.5914 49.9236 18.5664 52.0201" stroke="#48BB78" stroke-width="3" stroke-linecap="round"/>
<path d="M15.4755 44.3953C15.2518 45.0408 15.4198 52.2452 14.3976 50.393C13.0712 47.9896 15.3553 43.451 16.9435 46.7246C18.3821 49.6898 13.1443 51.8228 14.208 48.0518C15.0424 45.0938 18.3056 48.0468 17.3574 50.7819" stroke="#48BB78" stroke-width="3" stroke-linecap="round"/>
<path d="M61 79.2878C61 74.3499 61.4982 70 67.5788 70C69.8066 70 70.2195 73.5707 69.0838 75.0309C67.8012 76.6799 63.763 77.0768 61.774 77.7398" stroke="#48BB78" stroke-width="3" stroke-linecap="round"/>
<path d="M67.9657 72.322C67.2826 72.322 60.5306 74.8405 61.9459 73.268C63.7822 71.2276 68.8187 71.8991 66.2458 74.4719C63.9153 76.8024 60.1844 72.5521 64.0958 72.322C67.164 72.1415 65.4427 76.1919 62.5479 76.1919" stroke="#48BB78" stroke-width="3" stroke-linecap="round"/>
<path d="M15.0482 36.7398C15.0482 32.7888 9.71905 32.4291 6.70642 33.4719C5.45154 33.9063 3.88739 35.9658 6.14743 35.9658C8.75756 35.9658 11.2769 36.4401 13.4572 34.8049C16.5189 32.5086 15.7512 29.3741 11.9523 29.774C7.03982 30.2911 10.5696 37.2625 12.3393 35.4928C15.7939 32.0382 11.095 28.8419 7.73839 30.978C3.19553 33.8689 7.49738 38.6918 10.4043 34.2459C12.859 30.4917 8.85636 29.4585 8.85636 34.8049C8.85636 37.0445 12.2035 36.7855 13.5002 35.7938C15.946 33.9236 15.8222 31.7555 15.8222 29" stroke="#9747FF" stroke-width="3" stroke-linecap="round"/>
<path d="M82.0482 62.7398C82.0482 58.7888 76.7191 58.4291 73.7064 59.4719C72.4515 59.9063 70.8874 61.9658 73.1474 61.9658C75.7576 61.9658 78.2769 62.4401 80.4572 60.8049C83.5189 58.5086 82.7512 55.3741 78.9523 55.774C74.0398 56.2911 77.5696 63.2625 79.3393 61.4928C82.7939 58.0382 78.095 54.8419 74.7384 56.978C70.1955 59.8689 74.4974 64.6918 77.4043 60.2459C79.859 56.4917 75.8564 55.4585 75.8564 60.8049C75.8564 63.0445 79.2035 62.7855 80.5002 61.7938C82.946 59.9236 82.8222 57.7555 82.8222 55" stroke="#9747FF" stroke-width="3" stroke-linecap="round"/>
<path d="M82.0482 62.7398C82.0482 58.7888 76.7191 58.4291 73.7064 59.4719C72.4515 59.9063 70.8874 61.9658 73.1474 61.9658C75.7576 61.9658 78.2769 62.4401 80.4572 60.8049C83.5189 58.5086 82.7512 55.3741 78.9523 55.774C74.0398 56.2911 77.5696 63.2625 79.3393 61.4928C82.7939 58.0382 78.095 54.8419 74.7384 56.978C70.1955 59.8689 74.4974 64.6918 77.4043 60.2459C79.859 56.4917 75.8564 55.4585 75.8564 60.8049C75.8564 63.0445 79.2035 62.7855 80.5002 61.7938C82.946 59.9236 82.8222 57.7555 82.8222 55" stroke="#9747FF" stroke-width="3" stroke-linecap="round"/>
<path d="M57.0482 23.7398C57.0482 19.7888 51.7191 19.4291 48.7064 20.4719C47.4515 20.9063 45.8874 22.9658 48.1474 22.9658C50.7576 22.9658 53.2769 23.4401 55.4572 21.8049C58.5189 19.5086 57.7512 16.3741 53.9523 16.774C49.0398 17.2911 52.5696 24.2625 54.3393 22.4928C57.7939 19.0382 53.095 15.8419 49.7384 17.978C45.1955 20.8689 49.4974 25.6918 52.4043 21.2459C54.859 17.4917 50.8564 16.4585 50.8564 21.8049C50.8564 24.0445 54.2035 23.7855 55.5002 22.7938C57.946 20.9236 57.8222 18.7555 57.8222 16" stroke="#9747FF" stroke-width="3" stroke-linecap="round"/>
<path d="M16.7019 87.774C39.8412 87.774 62.7315 87 85.9732 87C88.0142 87 99.396 88.0001 92.939 90.8699C91.4029 91.5526 87.2749 93.8192 86.4032 95.1268C85.7257 96.1429 84.6407 96.3514 84.0382 97.4057C83.6342 98.1128 83.5245 99.4454 83.0922 99.9857C80.8354 102.807 82.3998 110.447 79.7813 112.541C78.9927 113.172 77.8464 124.679 77.8464 121.829" stroke="#5D5647" stroke-width="3" stroke-linecap="round"/>
<path d="M15.1539 89.3218C14.3751 89.433 16.7792 91.291 17.3038 91.8157C18.2779 92.7898 19.4276 94.6265 20.5717 95.3416C22.3343 96.4432 23.9173 102.249 24.3987 104.414C25.0052 107.144 27.2146 109.957 27.5376 112.541C27.6922 113.778 28.8834 115.578 29.6875 116.583C30.5703 117.687 30.0786 120.301 31.0205 121.055C36.2009 125.199 45.7647 123.377 52.305 123.377C60.4436 123.377 67.5323 120.281 75.5244 120.281" stroke="#5D5647" stroke-width="3" stroke-linecap="round"/>
<path d="M18.9733 89.1431H18.752" stroke="#5D5647" stroke-width="3" stroke-linecap="round"/>
<path d="M17.4238 88.0363C16.7334 87.4225 15.6414 88.0363 14.8782 88.0363C14.4128 88.0363 14.1034 87.9285 14.1034 88.479C14.1034 88.7872 14.2435 89.5116 13.8329 89.1922C12.7544 88.3534 15.0607 91.6362 15.7636 92.8078C16.6977 94.3645 17.2573 96.161 18.0879 97.7761C20.4486 102.366 23.026 106.836 25.5649 111.328C27.1478 114.129 28.0692 117.492 28.9222 120.478C29.0241 120.834 29.0536 121.115 29.2051 121.461C29.8053 122.833 27.9841 118.727 27.385 117.354C25.4221 112.857 23.3702 108.508 22.4044 103.679C22.0501 101.907 22.8481 95.8701 20.4122 95.3288C19.8881 95.2124 18.069 94.6967 18.0879 95.3411C18.1158 96.2908 19.4155 97.3857 20.0678 97.9728C20.6826 98.5261 21.4791 99.2313 21.396 97.9851C21.266 96.035 20.3983 93.5995 19.5882 91.7994C18.4593 89.2906 21.3097 90.0896 22.884 90.2498C27.7721 90.7474 32.6204 90.9139 37.5306 90.9139C39.6259 90.9139 45.8977 90.4958 43.8025 90.4958C42.6445 90.4958 41.2943 91.2387 40.2484 91.6272C37.5322 92.6361 34.8055 93.6142 32.1811 94.8492C30.6556 95.5671 26.2892 98.0726 27.8769 97.5055C29.3528 96.9784 31.026 95.7059 31.9966 94.4926C33.2121 92.9732 28.7839 93.3333 28.1721 93.3735C26.7344 93.4677 24.2921 93.88 23.4989 95.3411C22.8952 96.4532 24.8178 96.1851 25.2944 95.956C25.8408 95.6933 26.7801 94.6134 26.475 93.9269C26.084 93.0472 23.4866 93.7301 22.9701 94.2466C20.9235 96.2932 25.789 98.2846 26.8439 95.1197C28.0315 91.5568 21.8927 90.4285 20.8795 93.6932C18.8826 100.128 29.247 100.956 32.55 97.6531C33.7153 96.4878 35.9201 92.8165 33.9766 91.4058C31.0204 89.2602 27.4178 93.1521 26.2536 95.4641C24.7474 98.4552 26.4542 100.218 29.5371 100.506C34.003 100.923 39.645 98.7124 41.3675 94.2466C43.5596 88.5635 35.3349 91.7195 33.2387 93.0045C29.1151 95.5325 24.9058 100.023 24.95 105.155C24.9898 109.768 31.0712 108.021 33.5339 106.753C36.4897 105.232 39.303 103.114 41.3552 100.482C42.1755 99.4294 44.1739 96.9631 43.618 95.4395C43.2066 94.312 41.3288 94.3009 40.4083 94.4434C37.9898 94.8177 36.1226 96.6683 34.6038 98.4524C34.0972 99.0474 29.5391 105.05 31.5662 105.819C32.9455 106.342 34.7287 105.201 35.7966 104.491C37.782 103.171 39.781 101.504 41.2322 99.5961C41.5329 99.2009 43.092 96.9364 42.0193 96.5463C40.6321 96.0418 38.4724 97.3522 37.3953 98.0466C35.2506 99.4294 32.2364 102.001 32.0704 104.823C31.9042 107.649 37.2442 104.708 37.9856 103.937C38.9847 102.898 40.2706 100.874 39.3261 99.4117C38.2805 97.7927 35.3539 98.6642 34.0135 99.2887C31.126 100.634 26.7587 103.88 27.3112 107.59C27.8186 110.996 32.6268 109.921 34.5669 108.672C36.6803 107.311 37.7222 103.63 34.2471 103.63C32.0322 103.63 29.9686 105.157 29.0821 107.172C28.8229 107.761 28.9616 108.054 29.5863 107.786C31.4869 106.972 33.0966 105.543 34.5423 104.097C34.7643 103.875 38.7805 99.3856 38.084 99.1534C36.3701 98.5821 33.8084 101.66 32.9682 102.818C31.8214 104.398 32.6274 104.944 34.284 103.925C35.7514 103.022 39.9824 99.8035 38.6989 97.4932C38.0428 96.3122 35.1371 97.4958 34.3701 97.8007C31.9062 98.78 29.652 100.341 28.1475 102.548C27.0549 104.15 26.4128 106.16 26.8931 108.082C27.1337 109.044 27.6038 108.468 27.717 107.811C27.9239 106.611 28.0356 104.346 26.8316 103.544C25.9746 102.972 25.811 104.114 25.8847 104.786C26.4022 109.501 29.8612 113.449 32.919 116.813C34.3497 118.387 38.8782 123.413 41.3306 120.65C43.3903 118.329 43.598 112.567 41.7242 110.098C40.0304 107.867 37.0664 108.804 35.4769 110.541C33.684 112.501 32.3046 116.943 34.075 119.322C37.2867 123.637 42.5993 115.501 43.3966 112.878C44.4797 109.315 44.7371 103.492 39.9533 102.695C36.7641 102.164 33.8063 104.242 32.919 107.221C32.6138 108.245 32.1491 109.762 32.8698 110.713C33.6734 111.774 35.1374 112.313 36.3869 112.583C41.4345 113.67 47.1273 110.721 50.2096 106.852C51.2765 105.512 52.9284 102.982 52.1526 101.146C51.1496 98.7711 46.9743 99.0685 44.9953 99.301C40.2137 99.8626 34.0703 102.578 32.7468 107.725C31.1723 113.848 39.7017 114.427 43.7656 113.825C47.0392 113.34 49.9916 111.828 52.5953 109.828C53.1824 109.377 56.8793 106.592 55.719 105.45C54.2221 103.976 50.2586 105.234 48.6847 105.843C46.6153 106.645 44.4262 107.85 42.7572 109.336C42.3729 109.678 41.2778 110.634 41.4044 111.267C41.6492 112.49 46.3572 111.934 46.9999 111.918C52.4547 111.787 57.9916 111.128 63.4051 110.406C65.5242 110.123 59.1911 111.196 57.1578 111.857C54.4928 112.723 51.8107 113.662 49.2504 114.808C48.7228 115.045 47.2451 115.523 46.9384 116.137C46.7831 116.447 50.3484 116.576 50.5293 116.579C52.9547 116.624 55.386 116.519 57.8096 116.641C58.0023 116.65 60.9529 116.865 60.2445 117.256C57.9411 118.528 54.8112 119.003 52.3002 119.764C50.1678 120.411 48.0001 120.943 45.8808 121.634C45.3878 121.794 43.8865 122.126 44.4051 122.126C45.9415 122.126 47.4491 121.504 48.9183 121.129C51.4136 120.494 53.9344 119.889 56.4568 119.371C57.5837 119.139 59.0614 119.049 60.0847 118.473C60.5625 118.204 59.0219 118.144 58.4737 118.141C55.0198 118.121 51.5674 118.153 48.119 118.362C45.5001 118.521 42.8773 118.703 40.273 119.027C39.595 119.111 38.0787 118.981 37.4937 119.42C36.9045 119.862 38.8733 118.903 39.572 118.67C42.3455 117.745 45.1902 116.963 48.0329 116.284C49.8729 115.845 51.7119 115.381 53.5546 114.956C54.813 114.666 53.7496 114.858 53.1487 114.968C49.1137 115.708 45.0091 117.137 41.2568 118.805C41.0053 118.917 39.8726 119.383 40.642 119.518C42.5439 119.852 44.495 120.002 46.4219 120.084C49.1231 120.2 52.4729 119.615 55.1041 120.367C55.7066 120.539 53.9412 120.837 53.3455 121.031C51.8151 121.531 50.2368 121.854 48.697 122.322C48.1992 122.474 46.8001 122.969 47.1597 122.593C48.5872 121.101 50.8695 120.064 52.6199 119.027C54.6983 117.795 56.8564 116.595 58.7196 115.042C59.4528 114.431 61.2875 112.903 59.3837 112.484C54.9066 111.499 49.5654 112.69 45.2167 113.714C41.5631 114.575 37.9879 115.758 34.4439 116.985C34.2835 117.041 31.0157 118.231 32.0335 117.452C34.8568 115.293 38.2417 113.692 41.429 112.164C45.2206 110.348 56.8054 105.357 53.0012 107.147C47.9266 109.535 43.0579 112.214 38.1947 114.993C37.793 115.222 36.6475 116.117 36.1164 116.05C35.8524 116.017 36.3811 115.584 36.5591 115.386C37.3083 114.554 38.0697 113.732 38.8219 112.902C40.6684 110.866 42.7026 108.891 44.1099 106.507C44.2176 106.325 45.6475 103.743 45.1921 103.679C43.6797 103.467 41.4288 105.227 40.273 105.966C38.4148 107.156 36.7002 108.546 34.9727 109.914C34.4937 110.293 33.1388 111.527 33.5708 111.095C35.2831 109.382 37.3543 107.918 39.24 106.409C41.7989 104.362 44.3939 102.358 47.0983 100.506C47.5758 100.179 48.3585 99.0296 48.5617 99.5715C48.752 100.079 47.8203 100.363 47.4303 100.74C43.0407 104.978 38.1895 108.802 34.1979 113.443C33.991 113.684 33.0174 114.598 33.0174 114.993C33.0174 115.176 33.3084 114.768 33.4355 114.636C34.0529 113.995 34.6999 113.384 35.3293 112.755C37.5822 110.502 39.8952 108.286 41.9455 105.843C42.6961 104.949 44.7347 103.016 44.6756 101.687C44.6383 100.847 42.1473 102.449 42.0562 102.511C39.7362 104.077 37.7318 106.164 35.9319 108.291C34.5768 109.892 33.2502 111.555 32.1688 113.357C31.7458 114.062 31.4182 114.969 30.8284 115.559C30.1888 116.198 29.8974 114.782 29.7708 114.427C29.6788 114.17 28.9431 112.658 29.2543 113.591C29.9342 115.631 31.2693 117.424 32.4271 119.199C33.8517 121.383 33.3399 117.086 33.2633 116.419C33.0477 114.542 32.6679 111.913 31.2588 110.504C30.1169 109.362 30.2627 110.808 30.2627 111.759C30.2627 113.667 30.081 116.207 32.3041 116.985C35.3654 118.057 36.7387 114.885 37.1248 112.386C37.1811 112.021 37.3304 108.326 37.0141 108.783C35.7546 110.602 36.933 115.018 37.8381 116.702C39.1669 119.175 41.6377 121.531 44.5526 121.855C47.0383 122.131 46.4841 118.214 45.2659 117.133C43.1725 115.275 36.3433 114.294 36.6944 118.682C36.9474 121.845 45.3385 118.364 41.1831 115.091C40.654 114.675 36.928 113.084 36.928 114.808C36.928 116.07 42.1492 115.638 42.4497 115.632C48.1737 115.531 53.5314 114.282 58.8795 112.3C61.3834 111.372 64.1158 110.271 66.2581 108.623C68.1533 107.165 66.1239 106.843 64.7086 106.901C61.8397 107.018 59.1963 108.07 56.6782 109.385C55.303 110.103 53.5119 111.007 52.6691 112.386C49.712 117.225 63.734 117.367 66.2458 115.534C66.8272 115.11 65.8992 114.988 65.5941 114.956C64.118 114.802 62.5714 115.178 61.1669 115.608C59.6907 116.06 56.6006 117.4 56.3953 119.248C56.2192 120.833 58.1368 121.048 59.3837 121.191C59.7266 121.23 60.6735 121.254 60.9332 120.92C61.3118 120.434 58.2914 120.026 58.1539 120.01C56.5108 119.829 53.5831 119.433 52.0911 120.465C50.7743 121.377 55.4373 121.012 55.6821 121.006C61.2402 120.889 66.6993 119.705 72.1241 118.584C73.4333 118.313 74.6783 117.768 75.9856 117.526C76.0502 117.514 76.9449 117.46 76.4775 117.477C74.8781 117.536 73.2483 118.156 71.6814 118.461C70.5261 118.685 69.3119 118.765 68.2258 119.248C67.4271 119.603 69.0763 119.828 69.2711 119.863C70.3373 120.052 71.4471 119.996 72.4931 120.306C72.6983 120.366 74.0592 120.359 73.1572 120.527C71.7049 120.797 70.1911 120.757 68.73 121.068C68.18 121.185 67.1356 121.359 66.7008 121.794C66.6192 121.875 68.6607 122.126 68.9021 122.126C70.3776 122.126 72.0834 122.404 73.4277 121.732C74.0849 121.403 75.2344 121.401 75.7397 120.896C76.5661 120.069 76.3054 117.364 76.3054 116.321C76.3054 114.04 76.0384 111.664 77.1908 109.606C78.1992 107.806 78.2509 105.617 79.183 103.753C79.5745 102.97 80.2739 102.294 80.6096 101.527C81.1628 100.262 81.228 100.503 81.0646 101.908C80.6157 105.769 79.8471 109.574 79.8471 113.48C79.8471 116.007 79.1138 113.28 78.519 112.435C77.3642 110.794 76.7481 112.758 76.7481 113.714C76.7481 114.017 76.5558 115.194 76.7973 115.436C77.013 115.651 76.9693 114.563 76.9695 114.55C76.989 113.319 77.2853 112.183 77.6335 111.008C79.0688 106.17 81.1698 101.681 83.0691 97.0382C84.1656 94.3579 86.3094 91.8813 88.9229 90.6434C89.1867 90.5184 91.198 89.8071 90.5584 89.8071C87.9063 89.8071 85.3036 90.2746 82.6756 90.5696C76.9377 91.2136 71.2077 91.8349 65.4957 92.6971C59.1505 93.6549 52.7794 94.3 46.4465 95.2919C44.176 95.6475 41.8698 96.0791 39.572 96.2142C39.3838 96.2253 37.7295 96.3342 38.5882 95.9806C40.8578 95.0461 43.4487 94.5933 45.8193 94.0007C51.0301 92.6979 56.247 91.4243 61.5727 90.6926C62.154 90.6127 63.9057 90.4712 63.319 90.4712C62.195 90.4712 61.0727 90.4693 59.9494 90.5204C55.4647 90.7242 50.9845 90.6926 46.4957 90.6926C46.3461 90.6926 42.735 90.6795 43.7902 90.9139C47.2245 91.6771 51.0741 91.5645 54.563 91.578C55.1419 91.5802 64.843 91.9795 64.9177 91.3074C64.9711 90.8271 50.3675 92.012 49.4225 92.1314C44.7856 92.7174 39.8091 93.0266 35.2801 94.2343C34.6524 94.4017 35.7124 94.4557 35.772 94.4557C41.2008 94.4557 46.6798 94.2632 52.0788 93.6932C61.663 92.6813 71.2816 91.0245 80.708 89.0201C81.9869 88.7481 83.304 88.5329 84.5695 88.2084C86.2691 87.7726 81.0578 88.0341 79.306 88.1346C72.0634 88.5504 64.7883 90.018 57.662 91.3566C56.4416 91.5859 55.2186 91.7987 53.9973 92.0207C53.3904 92.1311 53.6908 92.2573 54.1449 92.2298C57.9305 92.0003 61.643 91.4036 65.385 90.8155C67.0851 90.5484 68.1844 90.2665 65.6555 90.2498C58.7477 90.2044 51.8241 90.4861 44.9216 90.7418C41.6652 90.8624 38.4175 90.9319 35.1695 91.123C35.0712 91.1288 33.5586 91.1353 34.3947 91.1353C37.0647 91.1353 39.7332 91.1438 42.4005 91C48.816 90.6543 55.3331 89.8671 61.6465 88.6511C61.7479 88.6316 63.7658 88.2576 63.1468 88.2576C61.0073 88.2576 58.8661 88.2358 56.7274 88.3068C47.4218 88.616 38.207 90.0027 28.9714 90.9262C28.2098 91.0024 27.4468 91.2591 28.7377 91.4058C32.2131 91.8008 35.7208 91.9121 39.2154 91.9715C46.6902 92.0987 54.2129 92.1571 61.6711 91.578C64.6398 91.3475 67.5817 90.9809 70.5623 90.9262C70.9763 90.9186 71.3904 90.9066 71.8044 90.9139C72.2114 90.9211 72.9813 90.7046 73.0096 91.1107C73.0455 91.6248 70.1607 93.1145 70.1196 93.1398C61.0129 98.7392 51.9806 104.338 43.1384 110.344C41.6181 111.377 39.9028 112.229 38.5144 113.443C38.4546 113.496 40.6813 111.781 41.0724 111.5C47.5613 106.84 54.553 103.033 61.3882 98.932C61.927 98.6088 63.5284 97.7811 61.8186 97.9236C57.4421 98.2883 53.048 100.046 48.906 101.392C45.8524 102.384 42.8634 103.563 39.8057 104.54C38.9395 104.817 36.4122 105.716 38.5759 104.441C42.8615 101.917 47.423 99.9706 51.9559 97.9482C51.9767 97.9389 54.1516 97.1 53.2594 97.5055C50.6915 98.6728 48.2179 100.056 45.7086 101.342C42.1614 103.16 31.6619 108.806 34.9358 106.532C41.1787 102.197 48.2443 98.702 55.1779 95.6117C56.1257 95.1892 58.8804 93.8418 58.0924 94.5172C57.5409 94.9899 56.1877 95.4374 55.6206 95.7346C53.4122 96.8922 51.2615 98.1567 49.1151 99.424C45.0626 101.817 41.1 104.369 37.0141 106.704C36.5013 106.997 35.3196 108.027 35.4031 107.442C35.4603 107.042 37.0948 105.87 37.2478 105.733C41.6685 101.754 46.3436 98.2622 51.1442 94.7754C53.3268 93.1901 49.287 95.0261 48.906 95.1935C45.5843 96.6536 42.4165 98.4342 39.117 99.9405C37.6415 100.614 36.1615 101.306 34.6653 101.933C33.184 102.553 34.7073 101.448 35.108 101.146C38.596 98.5143 42.4302 95.0908 46.8277 94.1605C51.529 93.166 43.2243 101.978 42.6342 102.572C41.0915 104.126 39.4774 105.605 37.8873 107.11C37.3835 107.587 35.7922 108.623 36.4853 108.647C37.0947 108.668 38.8402 107.437 39.1662 107.258C41.598 105.92 44.0385 104.603 46.5203 103.359C50.9825 101.123 55.5239 99.0424 60.0724 96.989C61.0732 96.5372 62.0708 96.0882 63.0976 95.6977C63.3752 95.5922 63.6505 95.4792 63.9339 95.3903C64.262 95.2873 64.6318 95.1895 64.106 95.5871C59.464 99.0969 53.9849 101.694 48.9552 104.589C45.2677 106.712 41.6906 109.045 37.9856 111.131C36.5695 111.929 40.3288 108.871 41.6012 107.86C47.5306 103.148 53.3805 98.2817 59.6174 93.9761C62.6458 91.8853 65.7961 89.808 69.0128 88.0117C69.2914 87.8561 69.5713 87.7019 69.8614 87.5689C70.4707 87.2897 70.1119 87.5886 69.8122 87.7903C67.2209 89.5341 64.4574 91.0791 61.7695 92.6602C54.2893 97.0603 31.5062 109.664 39.0924 105.45C46.9599 101.079 55.489 97.5593 63.9093 94.4065C64.9298 94.0244 67.4559 92.5753 68.607 93.1029C69.3411 93.4394 67.6373 94.4166 67.0083 94.923C64.2631 97.1332 61.4197 99.2308 58.572 101.306C51.7029 106.31 31.021 121.22 37.8504 116.161C46.1531 110.011 54.5839 104.062 63.4419 98.7353C65.3868 97.5656 67.6088 95.6421 69.8245 95.0091C70.1705 94.9102 69.3733 95.5756 69.0989 95.8084C67.871 96.8506 66.6028 97.849 65.3481 98.8583C62.4401 101.197 59.499 103.494 56.5798 105.819C55.4066 106.753 54.2461 107.701 53.1241 108.696C52.8467 108.943 51.4116 109.964 51.2918 110.443C51.2681 110.538 51.4605 110.343 51.5377 110.283C52.0596 109.878 53.234 108.866 53.5915 108.561C55.7246 106.74 57.8572 104.92 60.0232 103.138C65.6914 98.4743 71.3989 93.8126 77.3138 89.4628C79.7666 87.659 82.29 85.8543 84.9753 84.4084C87.885 82.8416 83.8135 86.271 83.4873 86.5482C75.928 92.9707 67.7432 98.6528 60.7979 105.77C59.8126 106.779 58.8612 107.789 58.1539 109.016C58.0488 109.199 57.7251 109.655 58.1908 109.25C59.1705 108.397 60.1121 107.496 61.0808 106.63C64.4976 103.577 67.9896 100.584 71.6322 97.8007C72.1259 97.4235 73.776 95.8713 74.5345 96.0052C74.7953 96.0512 70.8862 99.9699 70.7468 100.088C66.9204 103.331 62.9766 106.398 59.2853 109.803C58.5643 110.468 56.319 112.002 56.0387 113.124C56.0282 113.166 56.3477 112.899 56.383 112.828" stroke="#5D5647" stroke-width="3" stroke-linecap="round"/>
<path d="M77.1908 93.7916C77.5501 93.8429 76.8024 94.2847 76.7726 94.3081C74.9538 95.7411 73.3569 97.4745 71.8536 99.2272C70.4151 100.904 69.0231 102.698 67.9306 104.626C67.8395 104.787 67.0279 107.08 67.1066 107.049C68.0536 106.67 69.2962 104.365 69.8613 103.63C71.9382 100.927 73.9993 98.2093 75.9856 95.4395C77.5513 93.2562 82.3852 86.814 80.6587 88.8725C75.1415 95.4507 68.1706 100.86 61.7202 106.483C58.5481 109.248 55.0726 112.199 52.7183 115.731C50.8273 118.567 57.6372 111.009 60.0477 108.598C62.264 106.382 64.5077 104.09 67.0697 102.265C67.2812 102.114 69.6151 100.285 69.9474 100.617C70.4262 101.096 68.8627 103.357 68.6807 103.679C67.4749 105.812 66.2364 107.921 64.807 109.914C63.2772 112.046 61.9888 114.31 60.5027 116.456C59.4559 117.968 62.3317 113.262 63.3558 111.734C64.4023 110.173 65.5217 108.68 66.6393 107.172C67.1063 106.541 68.548 104.701 67.9675 105.228C65.7379 107.255 63.8473 110.181 62.2859 112.73C61.637 113.79 59.5179 117.169 60.2445 118.584C62.0078 122.018 72.1568 112.921 71.8413 109.766C71.6691 108.045 65.2102 112.714 64.7332 113.148C63.862 113.941 60.1664 117.166 60.8348 118.67C61.427 120.002 65.4725 115.703 65.7047 115.399C67.7864 112.666 68.9531 109.923 69.5293 106.581C69.8104 104.951 67.9226 107.731 67.7953 107.995C66.9272 109.801 66.4596 112.11 66.5778 114.12C66.7283 116.677 69.9592 114.124 70.6361 113.333C72.6759 110.947 74.2958 107.449 74.2147 104.245C74.1514 101.745 71.3829 104.113 70.7714 104.958C68.823 107.651 67.4058 112.101 67.9921 115.436C68.6561 119.212 72.8424 115.129 73.9688 113.984C76.8632 111.042 79.2096 107.476 81.0646 103.802C82.4001 101.157 83.512 98.398 84.4464 95.587C84.8547 94.3588 85.3319 92.9741 85.3319 91.6518C85.3319 89.78 83.7186 90.3534 82.528 91.0123C78.3508 93.3241 74.7029 97.0406 71.7306 100.727C71.4771 101.042 67.7836 106.394 68.9267 106.913C70.0614 107.429 73.5649 101.337 74.0548 100.592C74.785 99.4817 75.4708 98.366 76.0348 97.1612C76.1158 96.9881 76.966 95.3104 76.4775 96.3249C75.3795 98.6054 74.2224 100.903 73.4277 103.31C73.2392 103.881 72.8578 104.736 72.9972 105.364C73.0359 105.538 74.1723 103.976 74.1901 103.95C76.1773 100.991 78.049 97.9726 79.6257 94.7754C79.7413 94.5411 80.3193 93.3321 79.6749 94.2343C78.713 95.581 77.915 97.0294 77.1416 98.4893C75.7542 101.108 74.3508 103.708 73.4277 106.532C73.1513 107.377 73.6563 106.457 73.8335 106.2C75.1509 104.288 76.5292 102.423 77.8057 100.482C79.7593 97.5097 81.3601 94.2371 83.5118 91.4058C83.5541 91.3501 83.0947 92.9858 83.0199 93.2013C82.2441 95.4357 81.3629 97.621 80.4005 99.7806C79.3327 102.176 78.3378 104.708 77.6458 107.245C77.4602 107.926 77.4421 107.226 77.5105 106.926C77.8504 105.434 78.4977 103.996 78.9493 102.535C79.5677 100.536 80.4866 97.9557 80.4866 95.8207C80.4866 95.2017 79.9241 96.3684 79.9209 96.3741C78.9923 98.0043 78.134 99.6023 77.3629 101.318C75.8127 104.767 74.7032 108.207 74.0917 111.943C74.0437 112.237 73.628 115.404 73.9688 114.23C74.7396 111.575 75.6072 108.925 76.2561 106.237C76.4079 105.608 76.4299 104.669 76.8464 104.134C76.9112 104.051 76.4836 105.887 76.4037 106.126C75.2336 109.636 74.5667 113.324 73.9934 116.973C73.8454 117.914 73.6678 118.859 73.649 119.814C73.6326 120.649 73.6446 119.471 73.6367 119.309C73.5838 118.225 74.0334 110.639 72.3086 110.639C71.2991 110.639 70.5952 111.801 69.7998 112.25C68.5791 112.94 69.7671 111.104 70.0335 110.689C70.7021 109.646 71.8536 108.213 71.8536 106.876C71.8536 105.642 64.5072 108.079 63.8354 108.352C62.7694 108.786 61.7216 109.252 60.6257 109.606C60.1378 109.764 59.6317 109.982 60.4659 109.68C62.6813 108.878 65.0145 108.477 67.2296 107.688C67.3866 107.632 68.5426 107.277 68.2134 107.307C66.5576 107.457 64.9925 108.04 63.4665 108.672C60.1116 110.061 55.9612 111.579 53.1118 113.911C51.521 115.212 55.063 112.426 55.3254 112.25C57.868 110.545 61.1494 109.116 62.9746 106.544C64.695 104.12 58.1998 105.712 57.5636 105.917C54.1543 107.016 50.8882 108.682 47.75 110.394" stroke="#5D5647" stroke-width="3" stroke-linecap="round"/>
<path d="M88.0375 83.6089C86.311 83.6089 84.6141 83.7376 82.9462 83.8302C82.5564 83.8519 80.4945 84.0516 81.8886 84.0516C82.8683 84.0516 83.848 84.0516 84.8277 84.0516C85.6394 84.0516 86.4511 84.0516 87.2627 84.0516C88.3437 84.0516 85.7447 84.0516 85.3688 84.0516C83.5105 84.0516 81.5942 84.273 79.8472 84.273" stroke="white" stroke-width="3" stroke-linecap="round"/>
</svg>
